<?xml version="1.0" standalone="no"?>
<!DOCTYPE svg PUBLIC "-//W3C//DTD SVG 20010904//EN"
 "http://www.w3.org/TR/2001/REC-SVG-20010904/DTD/svg10.dtd">
<svg version="1.0" xmlns="http://www.w3.org/2000/svg"
 width="100" height="100" viewBox="0 0 204.000000 164.000000"
 preserveAspectRatio="xMidYMid meet">

<g transform="translate(0.000000,164.000000) scale(0.100000,-0.100000)"
fill="#99583b" stroke="none">
<path d="M901 1610 c-264 -37 -502 -209 -616 -445 -55 -114 -74 -185 -82 -307
-12 -193 38 -365 151 -526 20 -29 27 -45 19 -50 -6 -4 -79 -27 -162 -52 -83
-24 -149 -46 -147 -47 2 -2 95 8 207 23 176 22 226 25 369 20 173 -6 231 -17
326 -60 l58 -27 89 37 c169 68 352 91 481 59 62 -15 357 -57 362 -52 2 2 -71
25 -161 52 -91 26 -165 49 -165 50 0 1 13 19 29 39 45 57 108 185 133 272 19
66 22 102 22 219 -1 125 -3 149 -28 225 -37 111 -67 170 -131 256 -170 227
-472 353 -754 314z m-280 -286 c5 -7 12 -35 16 -63 l6 -51 -48 0 -48 0 7 52
c4 29 11 57 16 63 5 6 12 31 16 55 l8 45 9 -45 c5 -25 13 -50 18 -56z m826 4
c6 -7 14 -37 18 -65 l7 -53 -46 0 -46 0 0 43 c0 23 6 51 14 62 7 11 17 40 22
65 l8 45 6 -42 c3 -23 11 -47 17 -55z m-767 -177 c0 -22 -6 -44 -15 -51 -9 -7
-15 -29 -15 -51 l0 -39 -53 0 -53 0 4 37 c3 25 0 40 -10 47 -9 6 -17 30 -19
54 l-5 42 83 0 83 0 0 -39z m825 -3 c-4 -24 -12 -47 -19 -53 -8 -6 -11 -25 -8
-47 l4 -38 -56 0 -56 0 0 34 c0 18 -7 47 -15 62 -8 16 -15 41 -15 57 l0 27 86
0 86 0 -7 -42z m-434 -118 l24 -19 -31 11 c-23 8 -37 8 -59 -3 -87 -42 -31
-174 59 -141 l31 11 -24 -19 c-62 -52 -161 -3 -161 80 0 83 99 132 161 80z
m-371 -109 c0 -40 -5 -63 -15 -71 -12 -10 -15 -36 -15 -116 l0 -104 -70 0 -70
0 0 99 c0 75 -4 103 -15 115 -10 10 -15 35 -15 75 l0 61 100 0 100 0 0 -59z
m830 0 c0 -40 -5 -63 -15 -71 -11 -9 -15 -34 -15 -94 0 -127 0 -126 -81 -126
l-69 0 0 104 c0 80 -3 106 -15 116 -10 8 -15 31 -15 71 l0 59 105 0 105 0 0
-59z m-478 -157 c24 -26 77 -71 118 -100 120 -84 149 -166 95 -268 -23 -42
-23 -46 -6 -46 18 0 18 -2 2 -35 -12 -27 -25 -37 -56 -46 -38 -10 -132 -56
-166 -80 -12 -9 -24 -5 -59 20 -24 17 -80 43 -124 57 -66 20 -84 30 -98 54
-16 29 -16 30 2 30 18 0 18 2 -5 46 -32 61 -33 126 -2 176 12 20 58 63 102 96
44 32 96 77 115 99 19 23 36 42 37 42 2 1 22 -20 45 -45z m-342 -227 c0 -61
-3 -74 -20 -85 -17 -10 -20 -23 -20 -78 l0 -65 -72 3 -73 3 -3 60 c-2 35 -9
66 -18 76 -16 18 -31 117 -21 143 5 13 26 16 117 16 l110 0 0 -73z m824 1 c0
-48 -5 -73 -17 -86 -12 -13 -17 -36 -17 -76 0 -64 2 -62 -87 -70 l-63 -6 0 70
c0 59 -3 72 -20 82 -17 11 -20 24 -20 86 l0 73 113 -3 112 -3 -1 -67z"/>
<path d="M340 75 l0 -25 270 0 c233 0 270 -2 270 -15 0 -13 23 -15 145 -15
122 0 145 2 145 15 0 13 35 15 255 15 l255 0 0 25 0 25 -275 0 c-236 0 -276
-2 -281 -15 -9 -22 -199 -22 -208 0 -5 13 -46 15 -291 15 l-285 0 0 -25z"/>
</g>
</svg>
